<svg xmlns="http://www.w3.org/2000/svg" viewBox="0 0 500 500"><g id="freepik--background-simple--inject-166"><path d="M370,112.27a195.09,195.09,0,0,0-10.08-17.62C317.13,29.37,202.49-6.16,145.68,61.31c-13.53,16.08-18.25,35.51-27.37,54-20.72,42-59.45,67-83.73,105.87-18.82,30.11-16.31,68.7-5.81,101.24,11.41,35.37,31.49,60.07,63.61,78.85,36,21,74.51,15.21,113.43,7.88,17.51-3.29,35.55-6.65,53.45-5.4,22.41,1.58,44.53,7.92,66.76,11,23.12,3.21,47.11,4,69.38-3,71.32-22.37,88.22-127.21,58.89-187.27-10.39-21.26-28-37.66-44.32-54.3C392.33,152.15,381.52,134.57,370,112.27Z" style="fill:#C4704A"></path><path d="M370,112.27a195.09,195.09,0,0,0-10.08-17.62C317.13,29.37,202.49-6.16,145.68,61.31c-13.53,16.08-18.25,35.51-27.37,54-20.72,42-59.45,67-83.73,105.87-18.82,30.11-16.31,68.7-5.81,101.24,11.41,35.37,31.49,60.07,63.61,78.85,36,21,74.51,15.21,113.43,7.88,17.51-3.29,35.55-6.65,53.45-5.4,22.41,1.58,44.53,7.92,66.76,11,23.12,3.21,47.11,4,69.38-3,71.32-22.37,88.22-127.21,58.89-187.27-10.39-21.26-28-37.66-44.32-54.3C392.33,152.15,381.52,134.57,370,112.27Z" style="fill:#fff;opacity:0.8"></path></g><g id="freepik--Characters--inject-166"><path d="M215.58,391.74A28.25,28.25,0,0,1,212,401c-3,5.07-7.47,10.15-5.08,12.84s8.36,2.69,12.54,4.18,9.86,3,13.45,2.69,7.76-3.58,5.67-4.48-8.66-1.79-11.05-3.58-5.68-8.07-5.68-9.86S228.43,387,228.43,387Z" style="fill:#fff;stroke:#263238;stroke-linecap:round;stroke-linejoin:round"></path><path d="M219.76,391.74s1.8,12.84,1.8,18.52-2.1,8.66-.6,10.75,11.95,2.09,20,3.88,16.13-1.49,16.13-3.28-4.48-.9-8.36-2.69S233.2,408.17,232,405.48s2.09-21.21,2.09-21.21Z" style="fill:#fff;stroke:#263238;stroke-linecap:round;stroke-linejoin:round"></path><path d="M284.64,159.93s-2.7,14.4-3.6,16.65-2.25,3.38-5.63,5.41-5.85,2.7-5.17,3.6,5.85,1.35,8.33,1.35,5.4-1.35,8.1-1.13,5.62,0,5.62-3.15-1.35-7.65-1.35-8.78,6.3-14.62,6.3-14.62Z" style="fill:#fff;stroke:#263238;stroke-linecap:round;stroke-linejoin:round"></path><path d="M305.57,139s0,19.81,2.48,23.86,3.82,21.38,3.37,22.73-4.73,5.4-6.75,6.52-1.13,3.15.45,3.15,5.85,1.58,8.1.45,7.2-5.17,9-6.52-1.12-5.63-1.57-6.75S324,171.86,323.12,166s-2.47-7.88-1.35-13.28a143.32,143.32,0,0,0,2-16.2c.22-3.15,4.05-5.63,5.85-9.9s-11,3.15-15.3,5S304.89,134.5,305.57,139Z" style="fill:#fff;stroke:#263238;stroke-linecap:round;stroke-linejoin:round"></path><path d="M236.93,83.42s3.15,2,5.63,2,4.28-.22,5.4,1.36,2.48,4.27,3.83,3.82a6.52,6.52,0,0,0,2.47-1.8,57.08,57.08,0,0,1,8.33-1.35c2.47,0,3.6-5.18,3.6-8.33s-3.6-7-3.6-7-4.5-7.2-8.78-8.33-12.15,3.83-13.73,8.78S236.93,83.42,236.93,83.42Z" style="fill:#fff;stroke:#263238;stroke-linecap:round;stroke-linejoin:round"></path><path d="M257.45,87.13c-.26.09.28-.54-.73-2.5" style="fill:none;stroke:#263238;stroke-linecap:round;stroke-linejoin:round"></path><path d="M246.7,83.59s-1.16-1.64.29-2.65" style="fill:none;stroke:#263238;stroke-linecap:round;stroke-linejoin:round"></path><path d="M250.85,84.54s-2.2-.51-.78-2.72" style="fill:none;stroke:#263238;stroke-linecap:round;stroke-linejoin:round"></path><path d="M269.11,70.14s11.26-1.57,19.36,0l8.1,1.58s3.82-2.7,7.2-1.58S318,84.32,329.65,95.8s15.3,16.65,16,19.12-6.3,8.78-15.76,13.73-12.37,3.83-12.15,7.65,4.28,5.18-2.7,8.1-12.6,2.93-16.65,3.38-4.95,3.15-11.48,3.15-15.75-6.53-17.78-9.9-6.07-17.1-.9-25.21,11-14.62,10.13-18-9.23-3.15-9.23-3.15-4.27-6.52-4.72-12.83S264.84,71.72,269.11,70.14Z" style="fill:#fff;stroke:#263238;stroke-linecap:round;stroke-linejoin:round"></path><path d="M227,63.42a6.14,6.14,0,0,0-2.44,6.41c.91,4.28,5.49,7.94,5.49,7.94s-4.88,2.14-1.83,5.19,8.24,4,10.69,3.05,2.44-4.27,2.44-5.19,3.66.61,5.8-1.52,2.75-4,2.75-7a3.47,3.47,0,0,1,5.8-2.75c2.44,2.13.61,4,3.36,5.8s8.54-.31,9.15-1.83,0-3.06,1.84-3.36,4.88-2.44,4.88-5.19,1.53-6.72-1.53-7.33a21.08,21.08,0,0,0-5.8-.3s-2.74-5.5-5.19-7.33-8.85-4.28-14-4.28-11,.61-12.52,2.75-1.22,3.36-2.44,3.67-5.49.91-7,4.27S227,63.42,227,63.42Z" style="fill:#263238;stroke:#263238;stroke-linecap:round;stroke-linejoin:round"></path><path d="M224.36,136.08s-11.44,1.38-11.44,19.24,7.32,32.51,9.61,37.09,6.41,12.82,6.41,16.49-9.16,12.82-13.73,31.14c-2.13,8.48-8.25,23.35-15.57,36.17-5.69,10-38.47,36.18-56.79,42.14s-31.6,7.32-30.22,11.9a38.07,38.07,0,0,0,3.66,8.25s-5,0-5,4.12,1.38,18.77,11.45,25.18,23.36,2.75,22,10.08-5.49,12.36,8.24,16.49,20.61,3.2,21.53.91a36.26,36.26,0,0,1,2.29-4.58s17.4,10.08,30.68,7.33,23.81-9.16,27.48-8.7l3.66.46s-3.2,3.2-1.37,5.49,6.41,12.37,31.14,17.4,32.05-1.83,33-8.7a91.92,91.92,0,0,0,.92-11s6.41-5,6.41-12.82-3.21-33.43-11.91-59.08-24.27-67.31-27-82.43-2.75-24.27-4.12-32.51-2.75-12.37-2.75-20.15,1.83-27-1.37-35.26S243.6,128.76,224.36,136.08Z" style="fill:#C4704A;stroke:#263238;stroke-linecap:round;stroke-linejoin:round"></path><path d="M256.92,224.13a30.07,30.07,0,0,1,2.71,3.54" style="fill:none;stroke:#263238;stroke-linecap:round;stroke-linejoin:round"></path><path d="M240.09,210a103.27,103.27,0,0,1,14.68,11.85" style="fill:none;stroke:#263238;stroke-linecap:round;stroke-linejoin:round"></path><line x1="243.14" y1="205.08" x2="251.69" y2="213.02" style="fill:none;stroke:#263238;stroke-linecap:round;stroke-linejoin:round"></line><path d="M176.74,390.7s-14.92-5.24-17.31-3.74,14.33,9.56,14.33,9.56Z" style="fill:#263238;stroke:#263238;stroke-linecap:round;stroke-linejoin:round"></path><path d="M182.13,353.23c7.3-10,14.19-19.39,18.22-33.18" style="fill:none;stroke:#263238;stroke-linecap:round;stroke-linejoin:round"></path><path d="M159.43,387s3.58-5.08,13.74-20.91c2-3.1,4-6,6-8.81" style="fill:none;stroke:#263238;stroke-linecap:round;stroke-linejoin:round"></path><path d="M199.16,339c3.28-5.76,7-15.35,8.06-30.3,2.09-28.68,7.47-60.34,7.47-60.34" style="fill:none;stroke:#263238;stroke-linecap:round;stroke-linejoin:round"></path><path d="M193.48,346.34a20.17,20.17,0,0,0,3.42-3.82" style="fill:none;stroke:#263238;stroke-linecap:round;stroke-linejoin:round"></path><path d="M213.76,367.15a31.55,31.55,0,0,0,.63,8.16" style="fill:none;stroke:#263238;stroke-linecap:round;stroke-linejoin:round"></path><path d="M220.66,278.83s9.86,25.39,4.18,45.4c-4.11,14.48-9.31,27.71-10.74,39" style="fill:none;stroke:#263238;stroke-linecap:round;stroke-linejoin:round"></path><path d="M193.44,287.67a65.3,65.3,0,0,0,6.91-10" style="fill:none;stroke:#263238;stroke-linecap:round;stroke-linejoin:round"></path><path d="M116.29,338.5s28.5-4.11,51.5-24.72a268.46,268.46,0,0,0,21.47-21.19" style="fill:none;stroke:#263238;stroke-linecap:round;stroke-linejoin:round"></path><path d="M268.15,246.27s9,30.17,9.86,76.47-6.57,56.15-6.57,57.35,6.87,5.67,13.14,11.35S301,406.67,301,406.67l2.39-14.34L304.59,381l3.59,3.29" style="fill:#C4704A;stroke:#263238;stroke-linecap:round;stroke-linejoin:round"></path><path d="M303.4,392.33,304.59,381s-17-7.76-33.15-.89c0,1.19,6.87,5.67,13.14,11.35S301,406.67,301,406.67Z" style="fill:#263238;stroke:#263238;stroke-linecap:round;stroke-linejoin:round"></path><path d="M238.56,389.79s10.77,1,14.06,6.43.9,3.88-2.39,2.09C241.66,393.63,238.56,389.79,238.56,389.79Z" style="fill:#263238;stroke:#263238;stroke-linecap:round;stroke-linejoin:round"></path><path d="M269.57,298.13a199.06,199.06,0,0,0-1.72-23.78" style="fill:none;stroke:#263238;stroke-linecap:round;stroke-linejoin:round"></path><path d="M254.41,399.8s-.89-4.48-.89-16.43,6.27-20,12.54-47.79a156.77,156.77,0,0,0,3.51-31.7" style="fill:none;stroke:#263238;stroke-linecap:round;stroke-linejoin:round"></path><path d="M262.71,286.32a51.56,51.56,0,0,0,.07-6.59" style="fill:none;stroke:#263238;stroke-linecap:round;stroke-linejoin:round"></path><path d="M238.88,364s-.6-9,8.66-32.26c6.88-17.31,12.44-28.68,14.48-40" style="fill:none;stroke:#263238;stroke-linecap:round;stroke-linejoin:round"></path><path d="M262.41,86.06l-6.12,13-12.73,8.57,2,3.42s8.81-2.93,14.69-4.65,14.69-14.2,14.69-14.2S268,85.82,262.41,86.06Z" style="fill:#fff;stroke:#263238;stroke-linecap:round;stroke-linejoin:round"></path><path d="M220.31,85.49a19.63,19.63,0,0,1,6.45,2.8c2.58,1.93,5.38,3.87,7.75,4.3s5.37-2.15,6.23,0,0,6.67,0,6.67,7.53,9.89,8.18,11.82-1.3,3.45-3,4.74-8,3-8.17,4.51.65,12,.65,12H214.72V85.28Z" style="fill:#fff;stroke:#263238;stroke-linecap:round;stroke-linejoin:round"></path><path d="M231.92,95.17a3.78,3.78,0,0,1-3,3" style="fill:none;stroke:#263238;stroke-linecap:round;stroke-linejoin:round"></path><path d="M228.48,91.51S224.83,90.44,225,95" style="fill:none;stroke:#263238;stroke-linecap:round;stroke-linejoin:round"></path><path d="M242.68,103.56s0,1.93-2.8,2.15" style="fill:none;stroke:#263238;stroke-linecap:round;stroke-linejoin:round"></path><path d="M222.89,80.11s1.08,1.51-.21,5.38-2.8,7.53-2.8,7.53l-2.58-1.94a36.29,36.29,0,0,0,2.58,5c1.72,2.79,3.87,9.68,4.3,12.47s-.21,6,1.29,8.82.43,3.87,11.4,8.39,26.46,9.68,30.76,20,3.44,21.08,1.5,28.18.65,8.81,3.23,9.46,3.44,0,3.44,0a17.49,17.49,0,0,1-3.66,8.17c-3.22,4.09-11.18,6.24-15.91.86s-7.31-6.88-5.81-18.28,2.8-21.72-1.93-26.88-15.49-9.9-21.3-6-9.68,12.91-7.74,21.73,11,18.49,8,30.54-11.62,14.41-21.08,14.41a19.07,19.07,0,0,1-14.62-7.1s-2.37,1.94-8.39,1.94-10.11-6-10.11-8.39a54.8,54.8,0,0,1,1.07-7.53s4.09,4.09,5.38-.21-7.31-1.08-7.74-17.64,14.84-22.58,22.37-27.32,8.38-8.38,2.58-12.9-11.83-9.46-12.05-19.36,3.44-20,14.41-26,19.79-3.66,21.94-4.52S222.89,80.11,222.89,80.11Z" style="fill:#263238;stroke:#263238;stroke-linecap:round;stroke-linejoin:round"></path><path d="M207.31,147c-3.36,4.13-6.17,8.87-6,14.58.44,12.73,14.66,27.14,9.74,32.3-5.65,5.93-12.71-1-12.71-4.52s5.16-5,5.16-5" style="fill:none;stroke:#7d7d7d;stroke-linecap:round;stroke-linejoin:round"></path><path d="M215.38,124.29s4.39,2.64,2.2,9.66c-.87,2.79-3.68,5.71-6.73,9" style="fill:none;stroke:#7d7d7d;stroke-linecap:round;stroke-linejoin:round"></path><path d="M187.62,182.5c2.86,2.91,5.16,5.21,5.38,8.94.44,7.46-4.39,8.78-7.9,8.78" style="fill:none;stroke:#7d7d7d;stroke-linecap:round;stroke-linejoin:round"></path><path d="M206.61,132.63s4.82.44-7.46,11-25,14.05-20.19,26.34a31.91,31.91,0,0,0,5.95,9.68" style="fill:none;stroke:#7d7d7d;stroke-linecap:round;stroke-linejoin:round"></path><path d="M221.49,128.54a15.18,15.18,0,0,0,4.87,4.09c8.78,4.83,9.65-1.75,23.7,5.27s16.24,21.5,10.09,31.6-4.83,16.68.88,20.19" style="fill:none;stroke:#7d7d7d;stroke-linecap:round;stroke-linejoin:round"></path><path d="M218.9,119.46a12.71,12.71,0,0,0,1.25,6.91" style="fill:none;stroke:#7d7d7d;stroke-linecap:round;stroke-linejoin:round"></path><path d="M255.15,139.9s-11.83-5.16-22.58-1.72S223.11,155,225.47,164s14.31,12.7,20.22,11.62c6.13-1.13,8.82-11,8.82-11s41.29-.86,46.24-1.72,6.67-3.44,6.67-5.16-4.52-48.4-4.31-49.47,1.72-11.83,1.72-14-1.58-13.91-2.69-14.49c-2.12-1.11-2.38.34-2.38.34s.35-2.49-1.59-2.49S296,80.05,296,80.05s-1.72-1.44-2.37-.37S291.93,90.22,291.28,93s-1.07,4.51-1.07,4.51-4.09-3.22-6.24-3.44-2.79,2.58-1.5,3.23,3.44,1.07,5.37,3,5.38,7.82,5.38,7.82l1.51,3.23-5,34.55Z" style="fill:#fff;stroke:#263238;stroke-linecap:round;stroke-linejoin:round"></path><line x1="254.51" y1="164.64" x2="239.67" y2="165.07" style="fill:#fff;stroke:#263238;stroke-linecap:round;stroke-linejoin:round"></line><line x1="296.02" y1="80.05" x2="295" y2="93.74" style="fill:none;stroke:#263238;stroke-linecap:round;stroke-linejoin:round"></line><line x1="299.89" y1="79.52" x2="299.74" y2="93.15" style="fill:none;stroke:#263238;stroke-linecap:round;stroke-linejoin:round"></line><path d="M209.81,112.56s-4.18-7-6.46-3.8,1.14,5.32,1.14,5.32-4.56-1.14-4.37,2.28,5.13,2.09,5.13,2.09-4,3-.76,4.94,5.32-2.85,5.32-2.85-.57,4,2.85,3.61.76-6.84.76-6.84,3,2.66,4.37,0,.57-5.51-.76-5.51-3.23.19-3.23.19,3-3,.57-4.56S209.24,107.62,209.81,112.56Z" style="fill:#fff;stroke:#263238;stroke-linecap:round;stroke-linejoin:round"></path><path d="M211.9,115.22a1.52,1.52,0,1,0-1.52,1.52A1.52,1.52,0,0,0,211.9,115.22Z" style="fill:#fff;stroke:#263238;stroke-linecap:round;stroke-linejoin:round"></path><path d="M211.64,95.09S208,89,206,91.77s1,4.64,1,4.64-4-1-3.81,2,4.48,1.82,4.48,1.82-3.48,2.65-.67,4.31,4.64-2.49,4.64-2.49-.5,3.48,2.49,3.15.66-6,.66-6,2.65,2.32,3.81,0,.5-4.81-.66-4.81-2.82.17-2.82.17,2.65-2.65.5-4S211.14,90.78,211.64,95.09Z" style="fill:#fff;stroke:#263238;stroke-linecap:round;stroke-linejoin:round"></path><path d="M213.46,97.4a1.33,1.33,0,1,0-1.32,1.33A1.32,1.32,0,0,0,213.46,97.4Z" style="fill:#fff;stroke:#263238;stroke-linecap:round;stroke-linejoin:round"></path><path d="M200.41,124s-3.65-6.13-5.63-3.31,1,4.64,1,4.64-4-1-3.81,2,4.47,1.82,4.47,1.82-3.48,2.65-.66,4.31,4.64-2.49,4.64-2.49-.5,3.48,2.48,3.15.67-6,.67-6,2.65,2.31,3.81,0,.49-4.81-.67-4.81-2.81.17-2.81.17,2.65-2.65.49-4S199.91,119.69,200.41,124Z" style="fill:#fff;stroke:#263238;stroke-linecap:round;stroke-linejoin:round"></path><path d="M202.23,126.31a1.33,1.33,0,1,0-1.33,1.33A1.32,1.32,0,0,0,202.23,126.31Z" style="fill:#fff;stroke:#263238;stroke-linecap:round;stroke-linejoin:round"></path><path d="M272,91.32s7.56-.83,7.75-4.78-3.5-9.71-8.13-10.9-9.34.65-10.45,6.83-2.38,16.09-2.38,16.09a31.23,31.23,0,0,0-6.73,5.83,22.83,22.83,0,0,1-6.15,5.17,17.27,17.27,0,0,1-5.62,1.28c-2.49,0-6,1.23-6.11,2.16a21,21,0,0,1-.39,4.87c-.57,2,.58,1.92.58,1.92l2.48-2.07,4.92.52c1.57.16,6.28-3.77,6.28-3.77s9.94-4.09,13-5.63,7.33-5.06,7.92-6.4S272,91.32,272,91.32Z" style="fill:#fff;stroke:#263238;stroke-linecap:round;stroke-linejoin:round"></path><line x1="271.97" y1="91.32" x2="272.61" y2="87.42" style="fill:none;stroke:#263238;stroke-linecap:round;stroke-linejoin:round"></line><path d="M296.57,71.72A100.34,100.34,0,0,0,286.89,83" style="fill:none;stroke:#263238;stroke-linecap:round;stroke-linejoin:round"></path><path d="M293.65,79.68s-5.86,5.54-8.33,8.24" style="fill:none;stroke:#263238;stroke-linecap:round;stroke-linejoin:round"></path><path d="M302.19,71.94s9.95,6.75,16.05,46.44" style="fill:none;stroke:#263238;stroke-linecap:round;stroke-linejoin:round"></path><path d="M299.72,73.52s9.6,6.92,5.11,20.79c-1.41,4.36-1.51,10.26-5.79,19.71s-1.35,19.58-1.35,19.58,2.48,2.25,8.1,1.35S318.17,132.48,320,132s5.85-1.13,5.85-1.13" style="fill:#fff;stroke:#263238;stroke-linecap:round;stroke-linejoin:round"></path><path d="M325.82,130.9s-11.7-.67-18.9-1.12-11.93,2.7-7.43,5.85,12.61,2.47,16.21.9S320.65,132.25,325.82,130.9Z" style="fill:#263238;stroke:#263238;stroke-linecap:round;stroke-linejoin:round"></path><path d="M280.82,120.78C279.24,109.52,284,99,284,99s-1.58,14.62,2.92,23.4" style="fill:none;stroke:#263238;stroke-linecap:round;stroke-linejoin:round"></path></g></svg>