<?xml version="1.0" encoding="utf-8" ?>
<svg baseProfile="full" height="275" version="1.1" viewBox="0 0 353 275" width="353" xmlns="http://www.w3.org/2000/svg" xmlns:ev="http://www.w3.org/2001/xml-events" xmlns:xlink="http://www.w3.org/1999/xlink"><defs /><path d="M 130.0,265.5 L 129.0,265.5 L 128.0,265.5 L 127.5,265.0 L 127.0,264.5 L 126.5,264.0 L 126.5,263.0 L 126.0,262.5 L 125.5,262.0 L 125.5,261.0 L 125.0,260.5 L 124.5,260.0 L 124.0,259.5 L 123.0,259.5 L 122.5,259.0 L 122.0,258.5 L 121.0,258.5 L 120.5,258.0 L 120.0,257.5 L 119.0,257.5 L 118.0,257.5 L 117.0,257.5 L 116.5,258.0 L 116.0,258.5 L 115.0,258.5 L 114.0,258.5 L 113.0,258.5 L 112.0,258.5 L 111.5,259.0 L 111.0,259.5 L 110.0,259.5 L 109.0,259.5 L 108.5,260.0 L 108.0,260.5 L 107.0,260.5 L 106.0,260.5 L 105.0,260.5 L 104.5,261.0 L 104.0,261.5 L 103.0,261.5 L 102.0,261.5 L 101.0,261.5 L 100.5,262.0 L 100.0,262.5 L 99.0,262.5 L 98.0,262.5 L 97.0,262.5 L 96.5,262.0 L 96.5,261.0 L 97.0,260.5 L 97.5,260.0 L 98.0,259.5 L 98.5,259.0 L 98.5,258.0 L 99.0,257.5 L 99.5,257.0 L 100.0,256.5 L 100.5,256.0 L 100.5,255.0 L 101.0,254.5 L 101.5,254.0 L 102.0,253.5 L 102.5,253.0 L 102.5,252.0 L 103.0,251.5 L 103.5,251.0 L 103.5,250.0 L 104.0,249.5 L 104.5,249.0 L 104.5,248.0 L 105.0,247.5 L 105.5,247.0 L 105.5,246.0 L 106.0,245.5 L 106.5,245.0 L 106.5,244.0 L 107.0,243.5 L 107.5,243.0 L 107.5,242.0 L 108.0,241.5 L 108.5,241.0 L 108.5,240.0 L 109.0,239.5 L 109.5,239.0 L 109.5,238.0 L 109.5,237.0 L 110.0,236.5 L 110.5,236.0 L 110.5,235.0 L 110.5,234.0 L 110.5,233.0 L 111.0,232.5 L 111.5,232.0 L 111.5,231.0 L 111.5,230.0 L 112.0,229.5 L 112.5,229.0 L 112.5,228.0 L 112.5,227.0 L 112.5,226.0 L 112.5,225.0 L 112.5,224.0 L 113.0,223.5 L 113.5,223.0 L 113.5,222.0 L 113.5,221.0 L 113.5,220.0 L 113.5,219.0 L 114.0,218.5 L 114.5,218.0 L 114.5,217.0 L 114.5,216.0 L 114.5,215.0 L 114.5,214.0 L 114.5,213.0 L 114.5,212.0 L 114.5,211.0 L 114.5,210.0 L 114.5,209.0 L 114.5,208.0 L 114.5,207.0 L 114.5,206.0 L 114.5,205.0 L 114.5,204.0 L 114.5,203.0 L 114.5,202.0 L 114.5,201.0 L 114.5,200.0 L 114.5,199.0 L 114.5,198.0 L 114.5,197.0 L 114.5,196.0 L 114.5,195.0 L 114.5,194.0 L 114.5,193.0 L 114.5,192.0 L 114.5,191.0 L 114.5,190.0 L 114.5,189.0 L 114.5,188.0 L 114.5,187.0 L 114.5,186.0 L 114.0,185.5 L 113.5,185.0 L 113.5,184.0 L 113.5,183.0 L 113.5,182.0 L 113.5,181.0 L 113.5,180.0 L 113.5,179.0 L 113.5,178.0 L 113.5,177.0 L 113.5,176.0 L 113.5,175.0 L 113.5,174.0 L 113.5,173.0 L 113.5,172.0 L 113.5,171.0 L 113.5,170.0 L 113.5,169.0 L 113.5,168.0 L 113.5,167.0 L 113.5,166.0 L 113.5,165.0 L 113.5,164.0 L 113.5,163.0 L 114.0,162.5 L 114.5,162.0 L 114.5,161.0 L 114.5,160.0 L 114.5,159.0 L 114.5,158.0 L 114.5,157.0 L 114.5,156.0 L 114.5,155.0 L 114.5,154.0 L 115.0,153.5 L 115.5,153.0 L 115.5,152.0 L 115.5,151.0 L 115.5,150.0 L 115.5,149.0 L 115.5,148.0 L 115.5,147.0 L 116.0,146.5 L 116.5,146.0 L 116.5,145.0 L 116.5,144.0 L 116.5,143.0 L 117.0,142.5 L 117.5,142.0 L 117.5,141.0 L 117.5,140.0 L 117.5,139.0 L 118.0,138.5 L 118.5,138.0 L 118.5,137.0 L 118.5,136.0 L 118.5,135.0 L 119.0,134.5 L 119.5,134.0 L 119.5,133.0 L 120.0,132.5 L 120.5,132.0 L 120.5,131.0 L 120.5,130.0 L 120.5,129.0 L 121.0,128.5 L 121.5,128.0 L 121.5,127.0 L 121.5,126.0 L 122.0,125.5 L 122.5,125.0 L 122.5,124.0 L 123.0,123.5 L 123.5,123.0 L 123.5,122.0 L 123.5,121.0 L 124.0,120.5 L 124.5,120.0 L 124.5,119.0 L 125.0,118.5 L 125.5,118.0 L 125.5,117.0 L 126.0,116.5 L 126.5,116.0 L 126.5,115.0 L 127.0,114.5 L 127.5,114.0 L 127.5,113.0 L 128.0,112.5 L 128.5,112.0 L 128.5,111.0 L 129.0,110.5 L 129.5,110.0 L 129.5,109.0 L 130.0,108.5 L 130.5,108.0 L 130.5,107.0 L 131.0,106.5 L 131.5,106.0 L 132.0,105.5 L 132.5,105.0 L 132.5,104.0 L 133.0,103.5 L 133.5,103.0 L 133.5,102.0 L 134.0,101.5 L 134.5,101.0 L 135.0,100.5 L 135.5,100.0 L 135.5,99.0 L 136.0,98.5 L 136.5,98.0 L 137.0,97.5 L 137.5,97.0 L 137.5,96.0 L 138.0,95.5 L 138.5,95.0 L 139.0,94.5 L 139.5,94.0 L 139.5,93.0 L 140.0,92.5 L 140.5,92.0 L 141.0,91.5 L 141.5,91.0 L 142.0,90.5 L 142.5,90.0 L 142.5,89.0 L 143.0,88.5 L 143.5,88.0 L 143.5,87.0 L 144.0,86.5 L 144.5,86.0 L 144.5,85.0 L 144.0,84.5 L 143.5,85.0 L 143.0,85.5 L 142.0,85.5 L 141.5,86.0 L 141.0,86.5 L 140.5,87.0 L 140.0,87.5 L 139.5,88.0 L 139.0,88.5 L 138.5,89.0 L 138.0,89.5 L 137.5,90.0 L 137.0,90.5 L 136.5,91.0 L 136.0,91.5 L 135.5,92.0 L 135.0,92.5 L 134.5,93.0 L 134.0,93.5 L 133.5,94.0 L 133.0,94.5 L 132.5,95.0 L 132.0,95.5 L 131.5,96.0 L 131.0,96.5 L 130.5,97.0 L 130.0,97.5 L 129.5,98.0 L 129.5,99.0 L 129.0,99.5 L 128.5,100.0 L 128.0,100.5 L 127.5,101.0 L 127.0,101.5 L 126.5,102.0 L 126.0,102.5 L 125.5,103.0 L 125.5,104.0 L 125.0,104.5 L 124.5,105.0 L 124.0,105.5 L 123.5,106.0 L 123.0,106.5 L 122.5,107.0 L 122.5,108.0 L 122.0,108.5 L 121.5,109.0 L 121.0,109.5 L 120.5,110.0 L 120.0,110.5 L 119.5,111.0 L 119.5,112.0 L 119.0,112.5 L 118.5,113.0 L 118.0,113.5 L 117.5,114.0 L 117.0,114.5 L 116.5,115.0 L 116.0,115.5 L 115.5,116.0 L 115.0,116.5 L 114.5,117.0 L 114.5,118.0 L 114.0,118.5 L 113.5,119.0 L 113.0,119.5 L 112.5,120.0 L 112.0,120.5 L 111.5,121.0 L 111.0,121.5 L 110.5,122.0 L 110.0,122.5 L 109.5,123.0 L 109.0,123.5 L 108.5,124.0 L 108.0,124.5 L 107.5,125.0 L 107.0,125.5 L 106.5,126.0 L 106.0,126.5 L 105.5,127.0 L 105.0,127.5 L 104.5,128.0 L 104.0,128.5 L 103.5,129.0 L 103.0,129.5 L 102.0,129.5 L 101.5,130.0 L 101.0,130.5 L 100.5,131.0 L 100.0,131.5 L 99.5,132.0 L 99.0,132.5 L 98.0,132.5 L 97.5,133.0 L 97.0,133.5 L 96.5,134.0 L 96.0,134.5 L 95.0,134.5 L 94.5,135.0 L 94.0,135.5 L 93.0,135.5 L 92.5,136.0 L 92.0,136.5 L 91.0,136.5 L 90.5,137.0 L 90.0,137.5 L 89.0,137.5 L 88.5,138.0 L 88.0,138.5 L 87.0,138.5 L 86.0,138.5 L 85.5,139.0 L 85.0,139.5 L 84.0,139.5 L 83.0,139.5 L 82.0,139.5 L 81.5,140.0 L 81.0,140.5 L 80.0,140.5 L 79.0,140.5 L 78.0,140.5 L 77.5,141.0 L 77.0,141.5 L 76.0,141.5 L 75.0,141.5 L 74.0,141.5 L 73.0,141.5 L 72.0,141.5 L 71.0,141.5 L 70.0,141.5 L 69.0,141.5 L 68.0,141.5 L 67.0,141.5 L 66.0,141.5 L 65.0,141.5 L 64.0,141.5 L 63.0,141.5 L 62.0,141.5 L 61.0,141.5 L 60.0,141.5 L 59.0,141.5 L 58.0,141.5 L 57.5,141.0 L 57.0,140.5 L 56.0,140.5 L 55.0,140.5 L 54.0,140.5 L 53.0,140.5 L 52.5,140.0 L 52.0,139.5 L 51.0,139.5 L 50.0,139.5 L 49.5,139.0 L 49.0,138.5 L 48.0,138.5 L 47.5,138.0 L 47.0,137.5 L 46.0,137.5 L 45.0,137.5 L 44.5,137.0 L 44.0,136.5 L 43.0,136.5 L 42.5,136.0 L 42.0,135.5 L 41.0,135.5 L 40.5,135.0 L 40.0,134.5 L 39.0,134.5 L 38.5,134.0 L 38.0,133.5 L 37.5,133.0 L 37.0,132.5 L 36.5,132.0 L 36.0,131.5 L 35.0,131.5 L 34.5,131.0 L 34.0,130.5 L 33.5,130.0 L 33.0,129.5 L 32.5,129.0 L 32.0,128.5 L 31.0,128.5 L 30.5,128.0 L 30.0,127.5 L 29.5,127.0 L 29.0,126.5 L 28.5,126.0 L 28.0,125.5 L 27.5,125.0 L 27.0,124.5 L 26.5,124.0 L 26.0,123.5 L 25.5,123.0 L 25.0,122.5 L 24.5,122.0 L 24.5,121.0 L 24.0,120.5 L 23.5,120.0 L 23.0,119.5 L 22.5,119.0 L 22.0,118.5 L 21.5,118.0 L 21.0,117.5 L 20.5,117.0 L 20.5,116.0 L 20.0,115.5 L 19.5,115.0 L 19.0,114.5 L 18.5,114.0 L 18.5,113.0 L 18.0,112.5 L 17.5,112.0 L 17.5,111.0 L 17.0,110.5 L 16.5,110.0 L 16.5,109.0 L 16.0,108.5 L 15.5,108.0 L 15.5,107.0 L 15.0,106.5 L 14.5,106.0 L 14.5,105.0 L 14.5,104.0 L 14.0,103.5 L 13.5,103.0 L 13.5,102.0 L 13.5,101.0 L 13.0,100.5 L 12.5,100.0 L 12.5,99.0 L 12.5,98.0 L 12.0,97.5 L 11.5,97.0 L 11.5,96.0 L 11.5,95.0 L 11.5,94.0 L 11.0,93.5 L 10.5,93.0 L 10.5,92.0 L 10.5,91.0 L 10.5,90.0 L 10.5,89.0 L 10.5,88.0 L 10.5,87.0 L 10.5,86.0 L 10.5,85.0 L 10.0,84.5 L 9.5,84.0 L 9.5,83.0 L 9.5,82.0 L 9.5,81.0 L 9.5,80.0 L 9.5,79.0 L 9.5,78.0 L 9.5,77.0 L 9.5,76.0 L 9.5,75.0 L 10.0,74.5 L 10.5,74.0 L 10.5,73.0 L 10.5,72.0 L 10.5,71.0 L 10.5,70.0 L 10.5,69.0 L 10.5,68.0 L 10.5,67.0 L 11.0,66.5 L 11.5,66.0 L 11.5,65.0 L 11.5,64.0 L 12.0,63.5 L 12.5,63.0 L 12.5,62.0 L 12.5,61.0 L 12.5,60.0 L 13.0,59.5 L 13.5,59.0 L 13.5,58.0 L 13.5,57.0 L 14.0,56.5 L 14.5,56.0 L 14.5,55.0 L 15.0,54.5 L 15.5,54.0 L 15.5,53.0 L 16.0,52.5 L 16.5,52.0 L 16.5,51.0 L 17.0,50.5 L 17.5,50.0 L 17.5,49.0 L 18.0,48.5 L 18.5,48.0 L 18.5,47.0 L 19.0,46.5 L 19.5,46.0 L 19.5,45.0 L 20.0,44.5 L 20.5,44.0 L 21.0,43.5 L 21.5,43.0 L 21.5,42.0 L 22.0,41.5 L 22.5,41.0 L 23.0,40.5 L 23.5,40.0 L 23.5,39.0 L 24.0,38.5 L 24.5,38.0 L 25.0,37.5 L 25.5,37.0 L 26.0,36.5 L 26.5,36.0 L 27.0,35.5 L 27.5,35.0 L 27.5,34.0 L 28.0,33.5 L 28.5,33.0 L 29.0,32.5 L 29.5,32.0 L 30.0,31.5 L 30.5,31.0 L 31.0,30.5 L 31.5,30.0 L 32.0,29.5 L 32.5,29.0 L 33.0,28.5 L 34.0,28.5 L 34.5,28.0 L 35.0,27.5 L 35.5,27.0 L 36.0,26.5 L 36.5,26.0 L 37.0,25.5 L 37.5,25.0 L 38.0,24.5 L 39.0,24.5 L 39.5,24.0 L 40.0,23.5 L 40.5,23.0 L 41.0,22.5 L 41.5,22.0 L 42.0,21.5 L 43.0,21.5 L 43.5,21.0 L 44.0,20.5 L 45.0,20.5 L 45.5,20.0 L 46.0,19.5 L 46.5,19.0 L 47.0,18.5 L 48.0,18.5 L 48.5,18.0 L 49.0,17.5 L 50.0,17.5 L 50.5,17.0 L 51.0,16.5 L 52.0,16.5 L 52.5,16.0 L 53.0,15.5 L 54.0,15.5 L 55.0,15.5 L 55.5,15.0 L 56.0,14.5 L 57.0,14.5 L 57.5,14.0 L 58.0,13.5 L 59.0,13.5 L 60.0,13.5 L 60.5,13.0 L 61.0,12.5 L 62.0,12.5 L 63.0,12.5 L 64.0,12.5 L 64.5,12.0 L 65.0,11.5 L 66.0,11.5 L 67.0,11.5 L 68.0,11.5 L 68.5,11.0 L 69.0,10.5 L 70.0,10.5 L 71.0,10.5 L 72.0,10.5 L 73.0,10.5 L 73.5,10.0 L 74.0,9.5 L 75.0,9.5 L 76.0,9.5 L 77.0,9.5 L 78.0,9.5 L 79.0,9.5 L 80.0,9.5 L 81.0,9.5 L 82.0,9.5 L 83.0,9.5 L 84.0,9.5 L 85.0,9.5 L 86.0,9.5 L 87.0,9.5 L 88.0,9.5 L 89.0,9.5 L 89.5,10.0 L 90.0,10.5 L 91.0,10.5 L 92.0,10.5 L 93.0,10.5 L 94.0,10.5 L 95.0,10.5 L 95.5,11.0 L 96.0,11.5 L 97.0,11.5 L 98.0,11.5 L 99.0,11.5 L 100.0,11.5 L 100.5,12.0 L 101.0,12.5 L 102.0,12.5 L 103.0,12.5 L 104.0,12.5 L 104.5,13.0 L 105.0,13.5 L 106.0,13.5 L 107.0,13.5 L 107.5,14.0 L 108.0,14.5 L 109.0,14.5 L 109.5,15.0 L 110.0,15.5 L 111.0,15.5 L 112.0,15.5 L 112.5,16.0 L 113.0,16.5 L 114.0,16.5 L 115.0,16.5 L 115.5,17.0 L 116.0,17.5 L 117.0,17.5 L 117.5,18.0 L 118.0,18.5 L 119.0,18.5 L 120.0,18.5 L 120.5,19.0 L 121.0,19.5 L 121.5,20.0 L 122.0,20.5 L 123.0,20.5 L 123.5,21.0 L 124.0,21.5 L 125.0,21.5 L 126.0,21.5 L 126.5,22.0 L 127.0,22.5 L 127.5,23.0 L 128.0,23.5 L 129.0,23.5 L 129.5,24.0 L 130.0,24.5 L 131.0,24.5 L 131.5,25.0 L 132.0,25.5 L 132.5,26.0 L 133.0,26.5 L 134.0,26.5 L 134.5,27.0 L 135.0,27.5 L 136.0,27.5 L 136.5,28.0 L 137.0,28.5 L 138.0,28.5 L 138.5,29.0 L 139.0,29.5 L 139.5,30.0 L 140.0,30.5 L 140.5,31.0 L 141.0,31.5 L 142.0,31.5 L 142.5,32.0 L 142.5,33.0 L 142.0,33.5 L 141.5,34.0 L 141.0,34.5 L 140.5,35.0 L 140.0,35.5 L 139.5,36.0 L 139.5,37.0 L 139.0,37.5 L 138.5,38.0 L 138.0,38.5 L 137.5,39.0 L 137.5,40.0 L 137.0,40.5 L 136.5,41.0 L 136.5,42.0 L 136.0,42.5 L 135.5,43.0 L 135.5,44.0 L 135.0,44.5 L 134.5,45.0 L 134.0,45.5 L 133.5,45.0 L 133.0,44.5 L 132.0,44.5 L 131.5,44.0 L 131.0,43.5 L 130.5,43.0 L 130.0,42.5 L 129.0,42.5 L 128.5,42.0 L 128.0,41.5 L 127.0,41.5 L 126.5,41.0 L 126.0,40.5 L 125.0,40.5 L 124.5,40.0 L 124.0,39.5 L 123.5,39.0 L 123.0,38.5 L 122.0,38.5 L 121.5,38.0 L 121.0,37.5 L 120.0,37.5 L 119.5,37.0 L 119.0,36.5 L 118.0,36.5 L 117.5,36.0 L 117.0,35.5 L 116.0,35.5 L 115.5,35.0 L 115.0,34.5 L 114.0,34.5 L 113.5,34.0 L 113.0,33.5 L 112.0,33.5 L 111.0,33.5 L 110.5,33.0 L 110.0,32.5 L 109.0,32.5 L 108.0,32.5 L 107.5,32.0 L 107.0,31.5 L 106.0,31.5 L 105.0,31.5 L 104.5,31.0 L 104.0,30.5 L 103.0,30.5 L 102.0,30.5 L 101.5,30.0 L 101.0,29.5 L 100.0,29.5 L 99.0,29.5 L 98.0,29.5 L 97.0,29.5 L 96.0,29.5 L 95.5,29.0 L 95.0,28.5 L 94.0,28.5 L 93.0,28.5 L 92.0,28.5 L 91.0,28.5 L 90.0,28.5 L 89.0,28.5 L 88.0,28.5 L 87.0,28.5 L 86.0,28.5 L 85.0,28.5 L 84.0,28.5 L 83.0,28.5 L 82.0,28.5 L 81.0,28.5 L 80.0,28.5 L 79.0,28.5 L 78.0,28.5 L 77.0,28.5 L 76.0,28.5 L 75.0,28.5 L 74.0,28.5 L 73.0,28.5 L 72.0,28.5 L 71.5,29.0 L 71.0,29.5 L 70.0,29.5 L 69.0,29.5 L 68.0,29.5 L 67.0,29.5 L 66.5,30.0 L 66.0,30.5 L 65.0,30.5 L 64.0,30.5 L 63.5,31.0 L 63.0,31.5 L 62.0,31.5 L 61.5,32.0 L 61.0,32.5 L 60.0,32.5 L 59.5,33.0 L 59.0,33.5 L 58.0,33.5 L 57.5,34.0 L 57.0,34.5 L 56.0,34.5 L 55.5,35.0 L 55.0,35.5 L 54.5,36.0 L 54.0,36.5 L 53.0,36.5 L 52.5,37.0 L 52.0,37.5 L 51.5,38.0 L 51.0,38.5 L 50.5,39.0 L 50.0,39.5 L 49.0,39.5 L 48.5,40.0 L 48.0,40.5 L 47.5,41.0 L 47.0,41.5 L 46.5,42.0 L 46.0,42.5 L 45.5,43.0 L 45.0,43.5 L 44.5,44.0 L 44.0,44.5 L 43.5,45.0 L 43.5,46.0 L 43.0,46.5 L 42.5,47.0 L 42.0,47.5 L 41.5,48.0 L 41.0,48.5 L 40.5,49.0 L 40.0,49.5 L 39.5,50.0 L 39.5,51.0 L 39.0,51.5 L 38.5,52.0 L 38.0,52.5 L 37.5,53.0 L 37.5,54.0 L 37.0,54.5 L 36.5,55.0 L 36.5,56.0 L 36.0,56.5 L 35.5,57.0 L 35.5,58.0 L 35.0,58.5 L 34.5,59.0 L 34.5,60.0 L 34.0,60.5 L 33.5,61.0 L 33.5,62.0 L 33.5,63.0 L 33.0,63.5 L 32.5,64.0 L 32.5,65.0 L 32.5,66.0 L 32.0,66.5 L 31.5,67.0 L 31.5,68.0 L 31.5,69.0 L 31.5,70.0 L 31.0,70.5 L 30.5,71.0 L 30.5,72.0 L 30.5,73.0 L 30.5,74.0 L 30.5,75.0 L 30.5,76.0 L 30.5,77.0 L 30.5,78.0 L 30.5,79.0 L 30.5,80.0 L 30.5,81.0 L 30.5,82.0 L 30.5,83.0 L 30.5,84.0 L 30.5,85.0 L 30.5,86.0 L 30.5,87.0 L 30.5,88.0 L 30.5,89.0 L 30.5,90.0 L 31.0,90.5 L 31.5,91.0 L 31.5,92.0 L 31.5,93.0 L 32.0,93.5 L 32.5,94.0 L 32.5,95.0 L 32.5,96.0 L 32.5,97.0 L 33.0,97.5 L 33.5,98.0 L 33.5,99.0 L 33.5,100.0 L 34.0,100.5 L 34.5,101.0 L 34.5,102.0 L 35.0,102.5 L 35.5,103.0 L 35.5,104.0 L 36.0,104.5 L 36.5,105.0 L 36.5,106.0 L 37.0,106.5 L 37.5,107.0 L 38.0,107.5 L 38.5,108.0 L 39.0,108.5 L 39.5,109.0 L 39.5,110.0 L 40.0,110.5 L 40.5,111.0 L 41.0,111.5 L 41.5,112.0 L 42.0,112.5 L 42.5,113.0 L 43.0,113.5 L 43.5,114.0 L 44.0,114.5 L 44.5,115.0 L 45.0,115.5 L 45.5,116.0 L 46.0,116.5 L 46.5,117.0 L 47.0,117.5 L 48.0,117.5 L 48.5,118.0 L 49.0,118.5 L 49.5,119.0 L 50.0,119.5 L 51.0,119.5 L 51.5,120.0 L 52.0,120.5 L 52.5,121.0 L 53.0,121.5 L 54.0,121.5 L 55.0,121.5 L 55.5,122.0 L 56.0,122.5 L 57.0,122.5 L 57.5,123.0 L 58.0,123.5 L 59.0,123.5 L 60.0,123.5 L 61.0,123.5 L 62.0,123.5 L 63.0,123.5 L 63.5,124.0 L 64.0,124.5 L 65.0,124.5 L 66.0,124.5 L 67.0,124.5 L 68.0,124.5 L 69.0,124.5 L 70.0,124.5 L 70.5,124.0 L 71.0,123.5 L 72.0,123.5 L 73.0,123.5 L 74.0,123.5 L 75.0,123.5 L 76.0,123.5 L 76.5,123.0 L 77.0,122.5 L 78.0,122.5 L 79.0,122.5 L 79.5,122.0 L 80.0,121.5 L 81.0,121.5 L 82.0,121.5 L 82.5,121.0 L 83.0,120.5 L 84.0,120.5 L 84.5,120.0 L 85.0,119.5 L 86.0,119.5 L 86.5,119.0 L 87.0,118.5 L 88.0,118.5 L 88.5,118.0 L 89.0,117.5 L 89.5,117.0 L 90.0,116.5 L 90.5,116.0 L 91.0,115.5 L 91.5,115.0 L 92.0,114.5 L 92.5,114.0 L 93.0,113.5 L 94.0,113.5 L 94.5,113.0 L 95.0,112.5 L 95.5,112.0 L 96.0,111.5 L 96.5,111.0 L 97.0,110.5 L 97.5,110.0 L 98.0,109.5 L 98.5,109.0 L 99.0,108.5 L 99.5,108.0 L 100.0,107.5 L 100.5,107.0 L 101.0,106.5 L 101.5,106.0 L 102.0,105.5 L 103.0,105.5 L 103.5,105.0 L 103.5,104.0 L 104.0,103.5 L 104.5,103.0 L 105.0,102.5 L 105.5,102.0 L 106.0,101.5 L 106.5,101.0 L 107.0,100.5 L 107.5,100.0 L 108.0,99.5 L 108.5,99.0 L 109.0,98.5 L 109.5,98.0 L 110.0,97.5 L 110.5,97.0 L 111.0,96.5 L 111.5,96.0 L 112.0,95.5 L 112.5,95.0 L 112.5,94.0 L 113.0,93.5 L 113.5,93.0 L 114.0,92.5 L 114.5,92.0 L 115.0,91.5 L 115.5,91.0 L 116.0,90.5 L 116.5,90.0 L 117.0,89.5 L 117.5,89.0 L 118.0,88.5 L 118.5,88.0 L 119.0,87.5 L 119.5,87.0 L 120.0,86.5 L 120.5,86.0 L 121.0,85.5 L 121.5,85.0 L 122.0,84.5 L 122.5,84.0 L 123.0,83.5 L 123.5,83.0 L 124.0,82.5 L 124.5,82.0 L 125.0,81.5 L 125.5,81.0 L 126.0,80.5 L 126.5,80.0 L 127.0,79.5 L 127.5,79.0 L 128.0,78.5 L 128.5,78.0 L 129.0,77.5 L 129.5,77.0 L 130.0,76.5 L 130.5,76.0 L 131.0,75.5 L 131.5,75.0 L 132.0,74.5 L 133.0,74.5 L 133.5,74.0 L 134.0,73.5 L 134.5,73.0 L 135.0,72.5 L 135.5,72.0 L 136.0,71.5 L 136.5,71.0 L 137.0,70.5 L 138.0,70.5 L 138.5,70.0 L 139.0,69.5 L 140.0,69.5 L 140.5,70.0 L 141.0,70.5 L 141.5,71.0 L 141.5,72.0 L 142.0,72.5 L 142.5,73.0 L 143.0,73.5 L 143.5,74.0 L 143.5,75.0 L 144.0,75.5 L 144.5,76.0 L 144.5,77.0 L 145.0,77.5 L 145.5,78.0 L 146.0,78.5 L 146.5,79.0 L 147.0,79.5 L 147.5,80.0 L 147.5,81.0 L 148.0,81.5 L 148.5,82.0 L 149.0,82.5 L 149.5,83.0 L 150.0,83.5 L 150.5,84.0 L 151.0,84.5 L 151.5,85.0 L 152.0,85.5 L 152.5,86.0 L 153.0,86.5 L 153.5,87.0 L 154.0,87.5 L 154.5,88.0 L 155.0,88.5 L 155.5,89.0 L 156.0,89.5 L 156.5,90.0 L 157.0,90.5 L 158.0,90.5 L 158.5,91.0 L 158.5,92.0 L 158.5,93.0 L 158.0,93.5 L 157.5,94.0 L 157.5,95.0 L 157.0,95.5 L 156.5,96.0 L 156.0,96.5 L 155.5,97.0 L 155.5,98.0 L 155.0,98.5 L 154.5,99.0 L 154.0,99.5 L 153.5,100.0 L 153.5,101.0 L 153.0,101.5 L 152.5,102.0 L 152.5,103.0 L 152.0,103.5 L 151.5,104.0 L 151.5,105.0 L 151.0,105.5 L 150.5,106.0 L 150.5,107.0 L 150.0,107.5 L 149.5,108.0 L 149.0,108.5 L 148.5,109.0 L 148.5,110.0 L 148.0,110.5 L 147.5,111.0 L 147.5,112.0 L 147.5,113.0 L 147.0,113.5 L 146.5,114.0 L 146.5,115.0 L 146.0,115.5 L 145.5,116.0 L 145.5,117.0 L 145.0,117.5 L 144.5,118.0 L 144.5,119.0 L 144.5,120.0 L 144.0,120.5 L 143.5,121.0 L 143.5,122.0 L 143.0,122.5 L 142.5,123.0 L 142.5,124.0 L 142.5,125.0 L 142.5,126.0 L 142.0,126.5 L 141.5,127.0 L 141.5,128.0 L 141.5,129.0 L 141.0,129.5 L 140.5,130.0 L 140.5,131.0 L 140.5,132.0 L 140.5,133.0 L 140.0,133.5 L 139.5,134.0 L 139.5,135.0 L 139.5,136.0 L 139.0,136.5 L 138.5,137.0 L 138.5,138.0 L 138.5,139.0 L 138.5,140.0 L 138.5,141.0 L 138.0,141.5 L 137.5,142.0 L 137.5,143.0 L 137.5,144.0 L 137.5,145.0 L 137.5,146.0 L 137.0,146.5 L 136.5,147.0 L 136.5,148.0 L 136.5,149.0 L 136.5,150.0 L 136.5,151.0 L 136.5,152.0 L 136.5,153.0 L 136.5,154.0 L 136.5,155.0 L 136.0,155.5 L 135.5,156.0 L 135.5,157.0 L 135.5,158.0 L 135.5,159.0 L 135.5,160.0 L 135.5,161.0 L 135.5,162.0 L 135.5,163.0 L 135.5,164.0 L 135.5,165.0 L 135.5,166.0 L 135.5,167.0 L 135.5,168.0 L 135.5,169.0 L 135.5,170.0 L 135.5,171.0 L 135.5,172.0 L 135.5,173.0 L 135.5,174.0 L 135.5,175.0 L 135.5,176.0 L 135.5,177.0 L 135.5,178.0 L 135.5,179.0 L 135.5,180.0 L 135.5,181.0 L 135.5,182.0 L 135.5,183.0 L 136.0,183.5 L 136.5,184.0 L 136.5,185.0 L 136.5,186.0 L 136.5,187.0 L 136.5,188.0 L 136.5,189.0 L 136.5,190.0 L 136.5,191.0 L 137.0,191.5 L 137.5,192.0 L 137.5,193.0 L 137.5,194.0 L 137.5,195.0 L 137.5,196.0 L 138.0,196.5 L 138.5,197.0 L 138.5,198.0 L 138.5,199.0 L 138.5,200.0 L 138.5,201.0 L 138.5,202.0 L 139.0,202.5 L 139.5,203.0 L 139.5,204.0 L 139.5,205.0 L 139.5,206.0 L 139.5,207.0 L 140.0,207.5 L 140.5,208.0 L 140.5,209.0 L 140.5,210.0 L 140.5,211.0 L 140.5,212.0 L 140.5,213.0 L 140.5,214.0 L 141.0,214.5 L 141.5,215.0 L 141.5,216.0 L 141.5,217.0 L 141.5,218.0 L 141.5,219.0 L 141.5,220.0 L 141.5,221.0 L 141.5,222.0 L 141.5,223.0 L 141.5,224.0 L 141.5,225.0 L 141.5,226.0 L 141.5,227.0 L 141.5,228.0 L 141.5,229.0 L 141.5,230.0 L 141.5,231.0 L 141.5,232.0 L 141.5,233.0 L 141.5,234.0 L 141.5,235.0 L 141.5,236.0 L 141.0,236.5 L 140.5,237.0 L 140.5,238.0 L 140.5,239.0 L 140.5,240.0 L 140.5,241.0 L 140.5,242.0 L 140.5,243.0 L 140.0,243.5 L 139.5,244.0 L 139.5,245.0 L 139.5,246.0 L 139.0,246.5 L 138.5,247.0 L 138.5,248.0 L 138.5,249.0 L 138.5,250.0 L 138.0,250.5 L 137.5,251.0 L 137.5,252.0 L 137.5,253.0 L 137.0,253.5 L 136.5,254.0 L 136.5,255.0 L 136.0,255.5 L 135.5,256.0 L 135.5,257.0 L 135.0,257.5 L 134.5,258.0 L 134.5,259.0 L 134.5,260.0 L 134.0,260.5 L 133.5,261.0 L 133.0,261.5 L 132.5,262.0 L 132.5,263.0 L 132.0,263.5 L 131.5,264.0 L 131.0,264.5 L 130.5,265.0 L 130.0,265.5 Z" fill="#D49B23" stroke="none" /><path d="M 223.0,265.5 L 222.0,265.5 L 221.0,265.5 L 220.0,265.5 L 219.5,265.0 L 219.0,264.5 L 218.5,264.0 L 218.0,263.5 L 217.5,263.0 L 217.5,262.0 L 217.0,261.5 L 216.5,261.0 L 216.5,260.0 L 216.0,259.5 L 215.5,259.0 L 215.5,258.0 L 215.0,257.5 L 214.5,257.0 L 214.5,256.0 L 214.5,255.0 L 214.0,254.5 L 213.5,254.0 L 213.5,253.0 L 213.5,252.0 L 213.0,251.5 L 212.5,251.0 L 212.5,250.0 L 212.5,249.0 L 212.0,248.5 L 211.5,248.0 L 211.5,247.0 L 211.5,246.0 L 211.5,245.0 L 211.0,244.5 L 210.5,244.0 L 210.5,243.0 L 210.5,242.0 L 210.5,241.0 L 210.5,240.0 L 210.5,239.0 L 210.5,238.0 L 210.0,237.5 L 209.5,237.0 L 209.5,236.0 L 209.5,235.0 L 209.5,234.0 L 209.5,233.0 L 209.5,232.0 L 209.5,231.0 L 209.5,230.0 L 209.5,229.0 L 209.5,228.0 L 209.5,227.0 L 209.5,226.0 L 209.5,225.0 L 209.5,224.0 L 209.5,223.0 L 209.5,222.0 L 209.5,221.0 L 209.5,220.0 L 209.5,219.0 L 209.5,218.0 L 210.0,217.5 L 210.5,217.0 L 210.5,216.0 L 210.5,215.0 L 210.5,214.0 L 210.5,213.0 L 210.5,212.0 L 210.5,211.0 L 210.5,210.0 L 211.0,209.5 L 211.5,209.0 L 211.5,208.0 L 211.5,207.0 L 211.5,206.0 L 211.5,205.0 L 211.5,204.0 L 212.0,203.5 L 212.5,203.0 L 212.5,202.0 L 212.5,201.0 L 212.5,200.0 L 212.5,199.0 L 213.0,198.5 L 213.5,198.0 L 213.5,197.0 L 213.5,196.0 L 213.5,195.0 L 213.5,194.0 L 214.0,193.5 L 214.5,193.0 L 214.5,192.0 L 214.5,191.0 L 214.5,190.0 L 214.5,189.0 L 214.5,188.0 L 214.5,187.0 L 215.0,186.5 L 215.5,186.0 L 215.5,185.0 L 215.5,184.0 L 215.5,183.0 L 215.5,182.0 L 215.5,181.0 L 215.5,180.0 L 215.5,179.0 L 215.5,178.0 L 215.5,177.0 L 215.5,176.0 L 215.5,175.0 L 216.0,174.5 L 216.5,174.0 L 216.5,173.0 L 216.5,172.0 L 216.5,171.0 L 216.5,170.0 L 216.5,169.0 L 216.5,168.0 L 216.5,167.0 L 216.5,166.0 L 216.5,165.0 L 216.5,164.0 L 216.5,163.0 L 216.0,162.5 L 215.5,162.0 L 215.5,161.0 L 215.5,160.0 L 215.5,159.0 L 215.5,158.0 L 215.5,157.0 L 215.5,156.0 L 215.5,155.0 L 215.5,154.0 L 215.5,153.0 L 215.5,152.0 L 215.0,151.5 L 214.5,151.0 L 214.5,150.0 L 214.5,149.0 L 214.5,148.0 L 214.5,147.0 L 214.5,146.0 L 214.5,145.0 L 214.5,144.0 L 214.0,143.5 L 213.5,143.0 L 213.5,142.0 L 213.5,141.0 L 213.5,140.0 L 213.5,139.0 L 213.0,138.5 L 212.5,138.0 L 212.5,137.0 L 212.5,136.0 L 212.5,135.0 L 212.0,134.5 L 211.5,134.0 L 211.5,133.0 L 211.5,132.0 L 211.0,131.5 L 210.5,131.0 L 210.5,130.0 L 210.5,129.0 L 210.5,128.0 L 210.0,127.5 L 209.5,127.0 L 209.5,126.0 L 209.5,125.0 L 209.0,124.5 L 208.5,124.0 L 208.5,123.0 L 208.5,122.0 L 208.0,121.5 L 207.5,121.0 L 207.5,120.0 L 207.0,119.5 L 206.5,119.0 L 206.5,118.0 L 206.5,117.0 L 206.0,116.5 L 205.5,116.0 L 205.5,115.0 L 205.0,114.5 L 204.5,114.0 L 204.5,113.0 L 204.0,112.5 L 203.5,112.0 L 203.5,111.0 L 203.0,110.5 L 202.5,110.0 L 202.5,109.0 L 202.0,108.5 L 201.5,108.0 L 201.5,107.0 L 201.0,106.5 L 200.5,106.0 L 200.5,105.0 L 200.0,104.5 L 199.5,104.0 L 199.5,103.0 L 199.0,102.5 L 198.5,102.0 L 198.5,101.0 L 198.0,100.5 L 197.5,100.0 L 197.0,99.5 L 196.5,99.0 L 196.5,98.0 L 196.0,97.5 L 195.5,97.0 L 195.0,96.5 L 194.5,96.0 L 194.5,95.0 L 194.0,94.5 L 193.5,94.0 L 193.5,93.0 L 193.5,92.0 L 194.0,91.5 L 194.5,91.0 L 195.0,90.5 L 196.0,90.5 L 196.5,90.0 L 197.0,89.5 L 197.5,89.0 L 198.0,88.5 L 198.5,88.0 L 199.0,87.5 L 199.5,87.0 L 200.0,86.5 L 200.5,86.0 L 201.0,85.5 L 201.5,85.0 L 202.0,84.5 L 202.5,84.0 L 203.0,83.5 L 203.5,83.0 L 203.5,82.0 L 204.0,81.5 L 204.5,81.0 L 205.0,80.5 L 205.5,80.0 L 206.0,79.5 L 206.5,79.0 L 207.0,78.5 L 207.5,78.0 L 207.5,77.0 L 208.0,76.5 L 208.5,76.0 L 209.0,75.5 L 209.5,75.0 L 209.5,74.0 L 210.0,73.5 L 210.5,73.0 L 211.0,72.5 L 211.5,72.0 L 212.0,71.5 L 212.5,71.0 L 212.5,70.0 L 213.0,69.5 L 214.0,69.5 L 214.5,70.0 L 215.0,70.5 L 216.0,70.5 L 216.5,71.0 L 217.0,71.5 L 217.5,72.0 L 218.0,72.5 L 218.5,73.0 L 219.0,73.5 L 219.5,74.0 L 220.0,74.5 L 221.0,74.5 L 221.5,75.0 L 222.0,75.5 L 222.5,76.0 L 223.0,76.5 L 223.5,77.0 L 224.0,77.5 L 224.5,78.0 L 225.0,78.5 L 225.5,79.0 L 226.0,79.5 L 226.5,80.0 L 227.0,80.5 L 227.5,81.0 L 228.0,81.5 L 228.5,82.0 L 229.0,82.5 L 229.5,83.0 L 230.0,83.5 L 230.5,84.0 L 231.0,84.5 L 231.5,85.0 L 232.0,85.5 L 232.5,86.0 L 233.0,86.5 L 233.5,87.0 L 234.0,87.5 L 234.5,88.0 L 235.0,88.5 L 235.5,89.0 L 236.0,89.5 L 236.5,90.0 L 237.0,90.5 L 237.5,91.0 L 238.0,91.5 L 238.5,92.0 L 239.0,92.5 L 239.5,93.0 L 240.0,93.5 L 240.5,94.0 L 240.5,95.0 L 241.0,95.5 L 241.5,96.0 L 242.0,96.5 L 242.5,97.0 L 243.0,97.5 L 243.5,98.0 L 244.0,98.5 L 244.5,99.0 L 245.0,99.5 L 245.5,100.0 L 246.0,100.5 L 246.5,101.0 L 247.0,101.5 L 247.5,102.0 L 248.0,102.5 L 248.5,103.0 L 249.0,103.5 L 249.5,104.0 L 249.5,105.0 L 250.0,105.5 L 251.0,105.5 L 251.5,106.0 L 252.0,106.5 L 252.5,107.0 L 252.5,108.0 L 253.0,108.5 L 254.0,108.5 L 254.5,109.0 L 255.0,109.5 L 255.5,110.0 L 256.0,110.5 L 256.5,111.0 L 257.0,111.5 L 257.5,112.0 L 258.0,112.5 L 258.5,113.0 L 259.0,113.5 L 259.5,114.0 L 260.0,114.5 L 261.0,114.5 L 261.5,115.0 L 262.0,115.5 L 262.5,116.0 L 263.0,116.5 L 263.5,117.0 L 264.0,117.5 L 265.0,117.5 L 265.5,118.0 L 266.0,118.5 L 266.5,119.0 L 267.0,119.5 L 268.0,119.5 L 268.5,120.0 L 269.0,120.5 L 270.0,120.5 L 270.5,121.0 L 271.0,121.5 L 272.0,121.5 L 273.0,121.5 L 273.5,122.0 L 274.0,122.5 L 275.0,122.5 L 276.0,122.5 L 276.5,123.0 L 277.0,123.5 L 278.0,123.5 L 279.0,123.5 L 280.0,123.5 L 281.0,123.5 L 282.0,123.5 L 283.0,123.5 L 284.0,123.5 L 285.0,123.5 L 285.5,124.0 L 286.0,124.5 L 287.0,124.5 L 287.5,124.0 L 288.0,123.5 L 289.0,123.5 L 290.0,123.5 L 291.0,123.5 L 292.0,123.5 L 293.0,123.5 L 293.5,123.0 L 294.0,122.5 L 295.0,122.5 L 296.0,122.5 L 297.0,122.5 L 297.5,122.0 L 298.0,121.5 L 299.0,121.5 L 299.5,121.0 L 300.0,120.5 L 301.0,120.5 L 302.0,120.5 L 302.5,120.0 L 303.0,119.5 L 303.5,119.0 L 304.0,118.5 L 305.0,118.5 L 305.5,118.0 L 306.0,117.5 L 306.5,117.0 L 307.0,116.5 L 307.5,116.0 L 308.0,115.5 L 308.5,115.0 L 309.0,114.5 L 309.5,114.0 L 310.0,113.5 L 310.5,113.0 L 311.0,112.5 L 311.5,112.0 L 312.0,111.5 L 312.5,111.0 L 313.0,110.5 L 313.5,110.0 L 314.0,109.5 L 314.5,109.0 L 315.0,108.5 L 315.5,108.0 L 316.0,107.5 L 316.5,107.0 L 316.5,106.0 L 317.0,105.5 L 317.5,105.0 L 317.5,104.0 L 318.0,103.5 L 318.5,103.0 L 318.5,102.0 L 319.0,101.5 L 319.5,101.0 L 319.5,100.0 L 320.0,99.5 L 320.5,99.0 L 320.5,98.0 L 321.0,97.5 L 321.5,97.0 L 321.5,96.0 L 321.5,95.0 L 321.5,94.0 L 322.0,93.5 L 322.5,93.0 L 322.5,92.0 L 322.5,91.0 L 322.5,90.0 L 323.0,89.5 L 323.5,89.0 L 323.5,88.0 L 323.5,87.0 L 323.5,86.0 L 323.5,85.0 L 323.5,84.0 L 323.5,83.0 L 323.5,82.0 L 323.5,81.0 L 323.5,80.0 L 323.5,79.0 L 323.5,78.0 L 323.5,77.0 L 323.5,76.0 L 323.5,75.0 L 323.5,74.0 L 323.5,73.0 L 323.5,72.0 L 323.5,71.0 L 323.5,70.0 L 323.0,69.5 L 322.5,69.0 L 322.5,68.0 L 322.5,67.0 L 322.5,66.0 L 322.5,65.0 L 322.0,64.5 L 321.5,64.0 L 321.5,63.0 L 321.5,62.0 L 321.0,61.5 L 320.5,61.0 L 320.5,60.0 L 320.5,59.0 L 320.0,58.5 L 319.5,58.0 L 319.5,57.0 L 319.0,56.5 L 318.5,56.0 L 318.5,55.0 L 318.0,54.5 L 317.5,54.0 L 317.5,53.0 L 317.0,52.5 L 316.5,52.0 L 316.5,51.0 L 316.0,50.5 L 315.5,50.0 L 315.0,49.5 L 314.5,49.0 L 314.0,48.5 L 313.5,48.0 L 313.5,47.0 L 313.0,46.5 L 312.5,46.0 L 312.0,45.5 L 311.5,45.0 L 311.0,44.5 L 310.5,44.0 L 310.0,43.5 L 309.5,43.0 L 309.0,42.5 L 308.5,42.0 L 308.0,41.5 L 307.5,41.0 L 307.0,40.5 L 306.5,40.0 L 306.0,39.5 L 305.5,39.0 L 305.0,38.5 L 304.5,38.0 L 304.0,37.5 L 303.0,37.5 L 302.5,37.0 L 302.0,36.5 L 301.5,36.0 L 301.0,35.5 L 300.0,35.5 L 299.5,35.0 L 299.0,34.5 L 298.5,34.0 L 298.0,33.5 L 297.0,33.5 L 296.5,33.0 L 296.0,32.5 L 295.0,32.5 L 294.5,32.0 L 294.0,31.5 L 293.0,31.5 L 292.0,31.5 L 291.5,31.0 L 291.0,30.5 L 290.0,30.5 L 289.5,30.0 L 289.0,29.5 L 288.0,29.5 L 287.0,29.5 L 286.0,29.5 L 285.5,29.0 L 285.0,28.5 L 284.0,28.5 L 283.0,28.5 L 282.0,28.5 L 281.0,28.5 L 280.5,28.0 L 280.0,27.5 L 279.0,27.5 L 278.0,27.5 L 277.0,27.5 L 276.0,27.5 L 275.0,27.5 L 274.0,27.5 L 273.0,27.5 L 272.0,27.5 L 271.0,27.5 L 270.0,27.5 L 269.0,27.5 L 268.0,27.5 L 267.0,27.5 L 266.0,27.5 L 265.0,27.5 L 264.0,27.5 L 263.5,28.0 L 263.0,28.5 L 262.0,28.5 L 261.0,28.5 L 260.0,28.5 L 259.0,28.5 L 258.0,28.5 L 257.5,29.0 L 257.0,29.5 L 256.0,29.5 L 255.0,29.5 L 254.0,29.5 L 253.0,29.5 L 252.5,30.0 L 252.0,30.5 L 251.0,30.5 L 250.0,30.5 L 249.0,30.5 L 248.5,31.0 L 248.0,31.5 L 247.0,31.5 L 246.0,31.5 L 245.5,32.0 L 245.0,32.5 L 244.0,32.5 L 243.0,32.5 L 242.5,33.0 L 242.0,33.5 L 241.0,33.5 L 240.0,33.5 L 239.5,34.0 L 239.0,34.5 L 238.0,34.5 L 237.5,35.0 L 237.0,35.5 L 236.0,35.5 L 235.5,36.0 L 235.0,36.5 L 234.0,36.5 L 233.0,36.5 L 232.5,37.0 L 232.0,37.5 L 231.5,38.0 L 231.0,38.5 L 230.0,38.5 L 229.5,39.0 L 229.0,39.5 L 228.0,39.5 L 227.5,40.0 L 227.0,40.5 L 226.0,40.5 L 225.5,41.0 L 225.0,41.5 L 224.0,41.5 L 223.5,42.0 L 223.0,42.5 L 222.5,43.0 L 222.0,43.5 L 221.0,43.5 L 220.5,44.0 L 220.0,44.5 L 219.0,44.5 L 218.5,45.0 L 218.0,45.5 L 217.5,45.0 L 217.5,44.0 L 217.0,43.5 L 216.5,43.0 L 216.5,42.0 L 216.0,41.5 L 215.5,41.0 L 215.0,40.5 L 214.5,40.0 L 214.5,39.0 L 214.0,38.5 L 213.5,38.0 L 213.0,37.5 L 212.5,37.0 L 212.5,36.0 L 212.0,35.5 L 211.5,35.0 L 211.0,34.5 L 210.5,34.0 L 210.5,33.0 L 211.0,32.5 L 211.5,32.0 L 212.0,31.5 L 212.5,31.0 L 213.0,30.5 L 213.5,30.0 L 214.0,29.5 L 215.0,29.5 L 215.5,29.0 L 216.0,28.5 L 216.5,28.0 L 217.0,27.5 L 218.0,27.5 L 218.5,27.0 L 219.0,26.5 L 220.0,26.5 L 220.5,26.0 L 221.0,25.5 L 222.0,25.5 L 222.5,25.0 L 223.0,24.5 L 224.0,24.5 L 224.5,24.0 L 225.0,23.5 L 226.0,23.5 L 226.5,23.0 L 227.0,22.5 L 228.0,22.5 L 228.5,22.0 L 229.0,21.5 L 230.0,21.5 L 230.5,21.0 L 231.0,20.5 L 232.0,20.5 L 232.5,20.0 L 233.0,19.5 L 234.0,19.5 L 234.5,19.0 L 235.0,18.5 L 236.0,18.5 L 236.5,18.0 L 237.0,17.5 L 238.0,17.5 L 239.0,17.5 L 239.5,17.0 L 240.0,16.5 L 241.0,16.5 L 241.5,16.0 L 242.0,15.5 L 243.0,15.5 L 244.0,15.5 L 245.0,15.5 L 245.5,15.0 L 246.0,14.5 L 247.0,14.5 L 248.0,14.5 L 248.5,14.0 L 249.0,13.5 L 250.0,13.5 L 251.0,13.5 L 251.5,13.0 L 252.0,12.5 L 253.0,12.5 L 254.0,12.5 L 255.0,12.5 L 255.5,12.0 L 256.0,11.5 L 257.0,11.5 L 258.0,11.5 L 259.0,11.5 L 260.0,11.5 L 260.5,11.0 L 261.0,10.5 L 262.0,10.5 L 263.0,10.5 L 264.0,10.5 L 265.0,10.5 L 265.5,10.0 L 266.0,9.5 L 267.0,9.5 L 268.0,9.5 L 269.0,9.5 L 270.0,9.5 L 271.0,9.5 L 272.0,9.5 L 273.0,9.5 L 274.0,9.5 L 275.0,9.5 L 276.0,9.5 L 277.0,9.5 L 278.0,9.5 L 279.0,9.5 L 280.0,9.5 L 281.0,9.5 L 282.0,9.5 L 282.5,10.0 L 283.0,10.5 L 284.0,10.5 L 285.0,10.5 L 286.0,10.5 L 287.0,10.5 L 288.0,10.5 L 289.0,10.5 L 289.5,11.0 L 290.0,11.5 L 291.0,11.5 L 292.0,11.5 L 293.0,11.5 L 293.5,12.0 L 294.0,12.5 L 295.0,12.5 L 296.0,12.5 L 296.5,13.0 L 297.0,13.5 L 298.0,13.5 L 299.0,13.5 L 299.5,14.0 L 300.0,14.5 L 301.0,14.5 L 302.0,14.5 L 302.5,15.0 L 303.0,15.5 L 304.0,15.5 L 304.5,16.0 L 305.0,16.5 L 306.0,16.5 L 306.5,17.0 L 307.0,17.5 L 308.0,17.5 L 308.5,18.0 L 309.0,18.5 L 309.5,19.0 L 310.0,19.5 L 311.0,19.5 L 311.5,20.0 L 312.0,20.5 L 313.0,20.5 L 313.5,21.0 L 314.0,21.5 L 314.5,22.0 L 315.0,22.5 L 316.0,22.5 L 316.5,23.0 L 317.0,23.5 L 317.5,24.0 L 318.0,24.5 L 318.5,25.0 L 319.0,25.5 L 319.5,26.0 L 320.0,26.5 L 321.0,26.5 L 321.5,27.0 L 322.0,27.5 L 322.5,28.0 L 323.0,28.5 L 323.5,29.0 L 324.0,29.5 L 324.5,30.0 L 324.5,31.0 L 325.0,31.5 L 325.5,32.0 L 326.0,32.5 L 326.5,33.0 L 327.0,33.5 L 327.5,34.0 L 328.0,34.5 L 328.5,35.0 L 329.0,35.5 L 329.5,36.0 L 329.5,37.0 L 330.0,37.5 L 330.5,38.0 L 331.0,38.5 L 331.5,39.0 L 331.5,40.0 L 332.0,40.5 L 332.5,41.0 L 333.0,41.5 L 333.5,42.0 L 333.5,43.0 L 334.0,43.5 L 334.5,44.0 L 334.5,45.0 L 335.0,45.5 L 335.5,46.0 L 336.0,46.5 L 336.5,47.0 L 336.5,48.0 L 336.5,49.0 L 337.0,49.5 L 337.5,50.0 L 337.5,51.0 L 338.0,51.5 L 338.5,52.0 L 338.5,53.0 L 339.0,53.5 L 339.5,54.0 L 339.5,55.0 L 339.5,56.0 L 339.5,57.0 L 340.0,57.5 L 340.5,58.0 L 340.5,59.0 L 340.5,60.0 L 341.0,60.5 L 341.5,61.0 L 341.5,62.0 L 341.5,63.0 L 342.0,63.5 L 342.5,64.0 L 342.5,65.0 L 342.5,66.0 L 342.5,67.0 L 342.5,68.0 L 342.5,69.0 L 342.5,70.0 L 343.0,70.5 L 343.5,71.0 L 343.5,72.0 L 343.5,73.0 L 343.5,74.0 L 343.5,75.0 L 343.5,76.0 L 343.5,77.0 L 343.5,78.0 L 343.5,79.0 L 343.5,80.0 L 343.5,81.0 L 343.5,82.0 L 343.5,83.0 L 343.5,84.0 L 343.5,85.0 L 343.5,86.0 L 343.5,87.0 L 343.0,87.5 L 342.5,88.0 L 342.5,89.0 L 342.5,90.0 L 342.5,91.0 L 342.5,92.0 L 342.5,93.0 L 342.5,94.0 L 342.0,94.5 L 341.5,95.0 L 341.5,96.0 L 341.5,97.0 L 341.0,97.5 L 340.5,98.0 L 340.5,99.0 L 340.5,100.0 L 340.5,101.0 L 340.0,101.5 L 339.5,102.0 L 339.5,103.0 L 339.5,104.0 L 339.0,104.5 L 338.5,105.0 L 338.5,106.0 L 338.0,106.5 L 337.5,107.0 L 337.5,108.0 L 337.0,108.5 L 336.5,109.0 L 336.5,110.0 L 336.0,110.5 L 335.5,111.0 L 335.5,112.0 L 335.0,112.5 L 334.5,113.0 L 334.0,113.5 L 333.5,114.0 L 333.5,115.0 L 333.5,116.0 L 333.0,116.5 L 332.5,117.0 L 332.0,117.5 L 331.5,118.0 L 331.0,118.5 L 330.5,119.0 L 330.5,120.0 L 330.0,120.5 L 329.5,121.0 L 329.0,121.5 L 328.5,122.0 L 328.0,122.5 L 327.5,123.0 L 327.0,123.5 L 326.5,124.0 L 326.5,125.0 L 326.0,125.5 L 325.5,126.0 L 325.0,126.5 L 324.5,127.0 L 324.0,127.5 L 323.0,127.5 L 322.5,128.0 L 322.0,128.5 L 321.5,129.0 L 321.0,129.5 L 320.5,130.0 L 320.0,130.5 L 319.5,131.0 L 319.0,131.5 L 318.0,131.5 L 317.5,132.0 L 317.0,132.5 L 316.5,133.0 L 316.0,133.5 L 315.0,133.5 L 314.5,134.0 L 314.0,134.5 L 313.0,134.5 L 312.5,135.0 L 312.0,135.5 L 311.5,136.0 L 311.0,136.5 L 310.0,136.5 L 309.5,137.0 L 309.0,137.5 L 308.0,137.5 L 307.0,137.5 L 306.5,138.0 L 306.0,138.5 L 305.0,138.5 L 304.0,138.5 L 303.5,139.0 L 303.0,139.5 L 302.0,139.5 L 301.0,139.5 L 300.5,140.0 L 300.0,140.5 L 299.0,140.5 L 298.0,140.5 L 297.0,140.5 L 296.0,140.5 L 295.5,141.0 L 295.0,141.5 L 294.0,141.5 L 293.0,141.5 L 292.0,141.5 L 291.0,141.5 L 290.0,141.5 L 289.0,141.5 L 288.0,141.5 L 287.0,141.5 L 286.0,141.5 L 285.0,141.5 L 284.0,141.5 L 283.0,141.5 L 282.0,141.5 L 281.0,141.5 L 280.0,141.5 L 279.0,141.5 L 278.0,141.5 L 277.0,141.5 L 276.0,141.5 L 275.5,141.0 L 275.0,140.5 L 274.0,140.5 L 273.0,140.5 L 272.0,140.5 L 271.5,140.0 L 271.0,139.5 L 270.0,139.5 L 269.0,139.5 L 268.5,139.0 L 268.0,138.5 L 267.0,138.5 L 266.0,138.5 L 265.5,138.0 L 265.0,137.5 L 264.0,137.5 L 263.5,137.0 L 263.0,136.5 L 262.0,136.5 L 261.5,136.0 L 261.0,135.5 L 260.0,135.5 L 259.5,135.0 L 259.0,134.5 L 258.0,134.5 L 257.5,134.0 L 257.0,133.5 L 256.5,133.0 L 256.0,132.5 L 255.0,132.5 L 254.5,132.0 L 254.0,131.5 L 253.0,131.5 L 252.5,131.0 L 252.0,130.5 L 251.5,130.0 L 251.0,129.5 L 250.5,129.0 L 250.0,128.5 L 249.0,128.5 L 248.5,128.0 L 248.0,127.5 L 247.5,127.0 L 247.0,126.5 L 246.5,126.0 L 246.0,125.5 L 245.5,125.0 L 245.0,124.5 L 244.5,124.0 L 244.0,123.5 L 243.5,123.0 L 243.0,122.5 L 242.5,122.0 L 242.0,121.5 L 241.5,121.0 L 241.0,120.5 L 240.5,120.0 L 240.0,119.5 L 239.5,119.0 L 239.0,118.5 L 238.5,118.0 L 238.0,117.5 L 237.5,117.0 L 237.0,116.5 L 236.5,116.0 L 236.0,115.5 L 235.5,115.0 L 235.0,114.5 L 234.5,114.0 L 234.0,113.5 L 233.5,113.0 L 233.5,112.0 L 233.0,111.5 L 232.5,111.0 L 232.0,110.5 L 231.5,110.0 L 231.0,109.5 L 230.5,109.0 L 230.5,108.0 L 230.0,107.5 L 229.5,107.0 L 229.0,106.5 L 228.5,106.0 L 228.0,105.5 L 227.5,105.0 L 227.0,104.5 L 226.5,104.0 L 226.5,103.0 L 226.0,102.5 L 225.5,102.0 L 225.0,101.5 L 224.5,101.0 L 224.0,100.5 L 223.5,100.0 L 223.0,99.5 L 222.5,99.0 L 222.0,98.5 L 221.5,98.0 L 221.0,97.5 L 220.5,97.0 L 220.5,96.0 L 220.0,95.5 L 219.5,95.0 L 219.0,94.5 L 218.5,94.0 L 218.0,93.5 L 217.5,93.0 L 217.0,92.5 L 216.5,92.0 L 216.0,91.5 L 215.5,91.0 L 215.0,90.5 L 214.5,90.0 L 214.0,89.5 L 213.5,89.0 L 213.0,88.5 L 212.5,88.0 L 212.0,87.5 L 211.5,87.0 L 211.0,86.5 L 210.5,86.0 L 210.0,85.5 L 209.0,85.5 L 208.0,85.5 L 207.5,86.0 L 207.5,87.0 L 208.0,87.5 L 208.5,88.0 L 209.0,88.5 L 209.5,89.0 L 209.5,90.0 L 210.0,90.5 L 210.5,91.0 L 211.0,91.5 L 211.5,92.0 L 211.5,93.0 L 212.0,93.5 L 212.5,94.0 L 213.0,94.5 L 213.5,95.0 L 213.5,96.0 L 214.0,96.5 L 214.5,97.0 L 215.0,97.5 L 215.5,98.0 L 216.0,98.5 L 216.5,99.0 L 216.5,100.0 L 217.0,100.5 L 217.5,101.0 L 217.5,102.0 L 218.0,102.5 L 218.5,103.0 L 219.0,103.5 L 219.5,104.0 L 219.5,105.0 L 220.0,105.5 L 220.5,106.0 L 220.5,107.0 L 221.0,107.5 L 221.5,108.0 L 221.5,109.0 L 222.0,109.5 L 222.5,110.0 L 222.5,111.0 L 223.0,111.5 L 223.5,112.0 L 224.0,112.5 L 224.5,113.0 L 224.5,114.0 L 225.0,114.5 L 225.5,115.0 L 225.5,116.0 L 226.0,116.5 L 226.5,117.0 L 226.5,118.0 L 227.0,118.5 L 227.5,119.0 L 227.5,120.0 L 228.0,120.5 L 228.5,121.0 L 228.5,122.0 L 228.5,123.0 L 229.0,123.5 L 229.5,124.0 L 229.5,125.0 L 229.5,126.0 L 230.0,126.5 L 230.5,127.0 L 230.5,128.0 L 231.0,128.5 L 231.5,129.0 L 231.5,130.0 L 231.5,131.0 L 232.0,131.5 L 232.5,132.0 L 232.5,133.0 L 232.5,134.0 L 232.5,135.0 L 233.0,135.5 L 233.5,136.0 L 233.5,137.0 L 233.5,138.0 L 234.0,138.5 L 234.5,139.0 L 234.5,140.0 L 234.5,141.0 L 234.5,142.0 L 234.5,143.0 L 235.0,143.5 L 235.5,144.0 L 235.5,145.0 L 235.5,146.0 L 235.5,147.0 L 235.5,148.0 L 236.0,148.5 L 236.5,149.0 L 236.5,150.0 L 236.5,151.0 L 236.5,152.0 L 236.5,153.0 L 237.0,153.5 L 237.5,154.0 L 237.5,155.0 L 237.5,156.0 L 237.5,157.0 L 237.5,158.0 L 237.5,159.0 L 237.5,160.0 L 237.5,161.0 L 237.5,162.0 L 237.5,163.0 L 238.0,163.5 L 238.5,164.0 L 238.5,165.0 L 238.5,166.0 L 238.5,167.0 L 238.5,168.0 L 238.5,169.0 L 238.5,170.0 L 238.5,171.0 L 238.5,172.0 L 238.5,173.0 L 238.5,174.0 L 238.5,175.0 L 238.5,176.0 L 238.5,177.0 L 238.5,178.0 L 238.5,179.0 L 238.5,180.0 L 238.5,181.0 L 238.5,182.0 L 238.5,183.0 L 238.5,184.0 L 238.5,185.0 L 238.5,186.0 L 238.5,187.0 L 238.5,188.0 L 238.0,188.5 L 237.5,189.0 L 237.5,190.0 L 237.5,191.0 L 237.5,192.0 L 237.5,193.0 L 237.5,194.0 L 237.5,195.0 L 237.5,196.0 L 237.5,197.0 L 237.5,198.0 L 237.5,199.0 L 237.5,200.0 L 237.5,201.0 L 237.5,202.0 L 237.5,203.0 L 237.5,204.0 L 237.5,205.0 L 237.5,206.0 L 237.5,207.0 L 237.5,208.0 L 237.5,209.0 L 237.5,210.0 L 237.5,211.0 L 237.5,212.0 L 237.5,213.0 L 237.5,214.0 L 237.5,215.0 L 237.5,216.0 L 237.5,217.0 L 237.5,218.0 L 237.5,219.0 L 237.5,220.0 L 237.5,221.0 L 238.0,221.5 L 238.5,222.0 L 238.5,223.0 L 238.5,224.0 L 238.5,225.0 L 238.5,226.0 L 238.5,227.0 L 239.0,227.5 L 239.5,228.0 L 239.5,229.0 L 239.5,230.0 L 239.5,231.0 L 240.0,231.5 L 240.5,232.0 L 240.5,233.0 L 240.5,234.0 L 240.5,235.0 L 240.5,236.0 L 241.0,236.5 L 241.5,237.0 L 241.5,238.0 L 241.5,239.0 L 242.0,239.5 L 242.5,240.0 L 242.5,241.0 L 242.5,242.0 L 243.0,242.5 L 243.5,243.0 L 243.5,244.0 L 244.0,244.5 L 244.5,245.0 L 244.5,246.0 L 245.0,246.5 L 245.5,247.0 L 245.5,248.0 L 246.0,248.5 L 246.5,249.0 L 246.5,250.0 L 247.0,250.5 L 247.5,251.0 L 247.5,252.0 L 248.0,252.5 L 248.5,253.0 L 248.5,254.0 L 249.0,254.5 L 249.5,255.0 L 249.5,256.0 L 250.0,256.5 L 250.5,257.0 L 251.0,257.5 L 251.5,258.0 L 251.5,259.0 L 252.0,259.5 L 252.5,260.0 L 253.0,260.5 L 253.5,261.0 L 253.5,262.0 L 253.0,262.5 L 252.0,262.5 L 251.0,262.5 L 250.5,262.0 L 250.0,261.5 L 249.0,261.5 L 248.0,261.5 L 247.5,261.0 L 247.0,260.5 L 246.0,260.5 L 245.0,260.5 L 244.5,260.0 L 244.0,259.5 L 243.0,259.5 L 242.0,259.5 L 241.0,259.5 L 240.5,259.0 L 240.0,258.5 L 239.0,258.5 L 238.0,258.5 L 237.0,258.5 L 236.5,258.0 L 236.0,257.5 L 235.0,257.5 L 234.0,257.5 L 233.0,257.5 L 232.0,257.5 L 231.0,257.5 L 230.0,257.5 L 229.5,258.0 L 229.0,258.5 L 228.0,258.5 L 227.5,259.0 L 227.0,259.5 L 226.5,260.0 L 226.0,260.5 L 225.5,261.0 L 225.5,262.0 L 225.0,262.5 L 224.5,263.0 L 224.5,264.0 L 224.0,264.5 L 223.5,265.0 L 223.0,265.5 Z" fill="#D49B23" stroke="none" /><path d="M 178.0,94.5 L 177.0,94.5 L 176.0,94.5 L 175.0,94.5 L 174.5,94.0 L 174.0,93.5 L 173.0,93.5 L 172.5,93.0 L 172.0,92.5 L 171.5,92.0 L 171.0,91.5 L 170.0,91.5 L 169.5,91.0 L 169.0,90.5 L 168.5,90.0 L 168.0,89.5 L 167.5,89.0 L 167.0,88.5 L 166.5,88.0 L 166.0,87.5 L 165.0,87.5 L 164.5,87.0 L 164.0,86.5 L 163.5,86.0 L 163.0,85.5 L 162.5,85.0 L 162.0,84.5 L 161.5,84.0 L 161.0,83.5 L 160.5,83.0 L 160.0,82.5 L 159.5,82.0 L 159.0,81.5 L 158.5,81.0 L 158.0,80.5 L 157.5,80.0 L 157.0,79.5 L 156.5,79.0 L 156.0,78.5 L 155.5,78.0 L 155.5,77.0 L 155.0,76.5 L 154.5,76.0 L 154.0,75.5 L 153.5,75.0 L 153.0,74.5 L 152.5,74.0 L 152.0,73.5 L 151.5,73.0 L 151.5,72.0 L 151.0,71.5 L 150.5,71.0 L 150.0,70.5 L 149.5,70.0 L 149.5,69.0 L 149.0,68.5 L 148.5,68.0 L 148.5,67.0 L 148.0,66.5 L 147.5,66.0 L 147.0,65.5 L 146.5,65.0 L 146.5,64.0 L 146.5,63.0 L 146.0,62.5 L 145.5,62.0 L 145.5,61.0 L 145.0,60.5 L 144.5,60.0 L 144.5,59.0 L 144.5,58.0 L 144.5,57.0 L 144.0,56.5 L 143.5,56.0 L 143.5,55.0 L 143.5,54.0 L 143.5,53.0 L 143.5,52.0 L 143.5,51.0 L 143.5,50.0 L 143.5,49.0 L 143.5,48.0 L 143.5,47.0 L 143.5,46.0 L 143.5,45.0 L 144.0,44.5 L 144.5,44.0 L 144.5,43.0 L 144.5,42.0 L 145.0,41.5 L 145.5,41.0 L 146.0,40.5 L 146.5,40.0 L 146.5,39.0 L 147.0,38.5 L 147.5,38.0 L 148.0,37.5 L 148.5,37.0 L 149.0,36.5 L 149.5,36.0 L 150.0,35.5 L 150.5,35.0 L 151.0,34.5 L 152.0,34.5 L 152.5,34.0 L 153.0,33.5 L 154.0,33.5 L 155.0,33.5 L 155.5,33.0 L 156.0,32.5 L 157.0,32.5 L 158.0,32.5 L 159.0,32.5 L 159.5,32.0 L 160.0,31.5 L 161.0,31.5 L 162.0,31.5 L 162.5,32.0 L 163.0,32.5 L 164.0,32.5 L 165.0,32.5 L 166.0,32.5 L 166.5,33.0 L 167.0,33.5 L 168.0,33.5 L 169.0,33.5 L 169.5,34.0 L 170.0,34.5 L 171.0,34.5 L 171.5,35.0 L 172.0,35.5 L 173.0,35.5 L 173.5,36.0 L 174.0,36.5 L 175.0,36.5 L 176.0,36.5 L 177.0,36.5 L 178.0,36.5 L 179.0,36.5 L 179.5,36.0 L 180.0,35.5 L 181.0,35.5 L 181.5,35.0 L 182.0,34.5 L 183.0,34.5 L 183.5,34.0 L 184.0,33.5 L 185.0,33.5 L 185.5,33.0 L 186.0,32.5 L 187.0,32.5 L 188.0,32.5 L 189.0,32.5 L 190.0,32.5 L 191.0,32.5 L 192.0,32.5 L 193.0,32.5 L 194.0,32.5 L 195.0,32.5 L 196.0,32.5 L 196.5,33.0 L 197.0,33.5 L 198.0,33.5 L 199.0,33.5 L 199.5,34.0 L 200.0,34.5 L 200.5,35.0 L 201.0,35.5 L 202.0,35.5 L 202.5,36.0 L 203.0,36.5 L 203.5,37.0 L 204.0,37.5 L 204.5,38.0 L 205.0,38.5 L 205.5,39.0 L 205.5,40.0 L 206.0,40.5 L 206.5,41.0 L 207.0,41.5 L 207.5,42.0 L 207.5,43.0 L 207.5,44.0 L 208.0,44.5 L 208.5,45.0 L 208.5,46.0 L 208.5,47.0 L 208.5,48.0 L 208.5,49.0 L 208.5,50.0 L 208.5,51.0 L 208.5,52.0 L 208.5,53.0 L 208.5,54.0 L 208.5,55.0 L 208.5,56.0 L 208.5,57.0 L 208.5,58.0 L 208.0,58.5 L 207.5,59.0 L 207.5,60.0 L 207.5,61.0 L 207.0,61.5 L 206.5,62.0 L 206.5,63.0 L 206.0,63.5 L 205.5,64.0 L 205.5,65.0 L 205.0,65.5 L 204.5,66.0 L 204.5,67.0 L 204.0,67.5 L 203.5,68.0 L 203.5,69.0 L 203.0,69.5 L 202.5,70.0 L 202.0,70.5 L 201.5,71.0 L 201.5,72.0 L 201.0,72.5 L 200.5,73.0 L 200.5,74.0 L 200.0,74.5 L 199.5,75.0 L 199.0,75.5 L 198.5,76.0 L 198.0,76.5 L 197.5,77.0 L 197.5,78.0 L 197.0,78.5 L 196.5,79.0 L 196.0,79.5 L 195.5,80.0 L 195.0,80.5 L 194.5,81.0 L 194.0,81.5 L 193.5,82.0 L 193.0,82.5 L 192.5,83.0 L 192.0,83.5 L 191.5,84.0 L 191.0,84.5 L 190.5,85.0 L 190.0,85.5 L 189.5,86.0 L 189.0,86.5 L 188.0,86.5 L 187.5,87.0 L 187.0,87.5 L 186.5,88.0 L 186.0,88.5 L 185.5,89.0 L 185.0,89.5 L 184.5,90.0 L 184.0,90.5 L 183.0,90.5 L 182.5,91.0 L 182.0,91.5 L 181.5,92.0 L 181.0,92.5 L 180.0,92.5 L 179.5,93.0 L 179.0,93.5 L 178.5,94.0 L 178.0,94.5 Z" fill="#D49B23" stroke="none" /></svg>